<?xml version="1.0" encoding="UTF-8"?>
<svg version="1.1" xmlns="http://www.w3.org/2000/svg" width="32" height="32">
<path d="M0 0 C3.92061103 2.19278684 6.97809862 4.95619724 9 9 C10.34009135 20.6039728 10.34009135 20.6039728 7.5078125 25.66796875 C4.31531972 29.30423128 1.94759708 31.77508065 -2.9765625 32.34375 C-14.03729021 32.81744284 -14.03729021 32.81744284 -18.8125 28.625 C-23.61624433 23.64713274 -23.50615879 19.37124985 -23.4921875 12.57421875 C-22.75174943 7.19722801 -20.18398445 4.28471177 -16 1 C-11.26503433 -1.36748284 -5.10642777 -0.70318022 0 0 Z " fill="#08206C" transform="translate(23,0)"/>
<path d="M0 0 C1.23492188 -0.03738281 2.46984375 -0.07476563 3.7421875 -0.11328125 C7.64036908 0.37736747 8.74344592 1.27871125 11.125 4.3125 C10.2175 5.034375 9.31 5.75625 8.375 6.5 C6.37551236 8.16003974 4.87491247 9.62927754 3.25 11.6875 C0.79919746 14.71496196 -1.94797699 17.07401959 -4.90234375 19.59765625 C-7.35297923 21.72801066 -9.6153837 23.98227069 -11.875 26.3125 C-12.865 25.9825 -13.855 25.6525 -14.875 25.3125 C-17.24248284 20.57753433 -16.57818022 14.41892777 -15.875 9.3125 C-11.93893238 2.27497596 -7.85102735 0.15506187 0 0 Z " fill="#086EAB" transform="translate(15.875,-0.3125)"/>
<path d="M0 0 C1.32 0.66 2.64 1.32 4 2 C3.48817777 6.17917653 1.23850155 8.10710028 -1.69140625 10.984375 C-2.15610825 11.44483215 -2.62081024 11.90528931 -3.09959412 12.37969971 C-4.58031819 13.84367811 -6.07114519 15.29686041 -7.5625 16.75 C-8.57034664 17.74279449 -9.57751633 18.7362767 -10.58398438 19.73046875 C-13.04819461 22.16166473 -15.52157329 24.58328868 -18 27 C-19.65 25.35 -21.3 23.7 -23 22 C-20.10595123 17.99285554 -17.11579725 15.6842156 -13 13 C-12.34 12.01 -11.68 11.02 -11 10 C-10.34 10 -9.68 10 -9 10 C-8.67 9.01 -8.34 8.02 -8 7 C-7.34 7 -6.68 7 -6 7 C-5.67 6.01 -5.34 5.02 -5 4 C-3.37667033 2.61423077 -1.71275535 1.27358732 0 0 Z " fill="#085597" transform="translate(26,4)"/>
<path d="M0 0 C1.22589844 0.01353516 1.22589844 0.01353516 2.4765625 0.02734375 C3.41628906 0.04474609 3.41628906 0.04474609 4.375 0.0625 C0.6448595 4.59915737 -3.29553566 8.84191122 -7.4375 13 C-7.92968018 13.49669189 -8.42186035 13.99338379 -8.92895508 14.50512695 C-12.50124634 18.0625 -12.50124634 18.0625 -13.625 18.0625 C-14.24396333 13.81818003 -14.49725866 10.43613569 -12.13671875 6.71875 C-8.22849879 2.2522129 -6.0626826 -0.08660975 0 0 Z " fill="#089ED1" transform="translate(13.625,-0.0625)"/>
<path d="M0 0 C0.66 0.66 1.32 1.32 2 2 C1.62997297 8.48897767 -3.40161804 12.06048395 -7.75 16.375 C-8.56210937 17.21933594 -9.37421875 18.06367188 -10.2109375 18.93359375 C-11.39816406 20.12275391 -11.39816406 20.12275391 -12.609375 21.3359375 C-13.33092773 22.06345215 -14.05248047 22.7909668 -14.79589844 23.54052734 C-17 25 -17 25 -19.77441406 24.72900391 C-20.50885742 24.48843262 -21.24330078 24.24786133 -22 24 C-17.64354469 18.77631875 -13.04239775 13.94766804 -8.1875 9.1875 C-6.84537138 7.87081457 -5.50541323 6.5519119 -4.16796875 5.23046875 C-3.58297607 4.65707764 -2.9979834 4.08368652 -2.39526367 3.49291992 C-0.89784025 2.03233739 -0.89784025 2.03233739 0 0 Z " fill="#08347B" transform="translate(30,7)"/>
<path d="M0 0 C-1.11681345 3.35044034 -2.0436896 4.14916343 -4.6875 6.375 C-5.41195313 6.99246094 -6.13640625 7.60992188 -6.8828125 8.24609375 C-8.59319177 9.66299466 -10.32470684 11.05435851 -12.0625 12.4375 C-15.23987347 15.20925132 -17.88013971 18.19901895 -20.58203125 21.42578125 C-21.28392578 22.20501953 -21.28392578 22.20501953 -22 23 C-22.33 23 -22.66 23 -23 23 C-23.33396689 19.84170663 -23.2927454 18.41315132 -21.42700195 15.7800293 C-20.70472412 15.05211182 -19.98244629 14.32419434 -19.23828125 13.57421875 C-18.44873047 12.77822266 -17.65917969 11.98222656 -16.84570312 11.16210938 C-16.00974609 10.34548828 -15.17378906 9.52886719 -14.3125 8.6875 C-13.49587891 7.85154297 -12.67925781 7.01558594 -11.83789062 6.15429688 C-11.04189453 5.36474609 -10.24589844 4.57519531 -9.42578125 3.76171875 C-8.69786377 3.03944092 -7.96994629 2.31716309 -7.2199707 1.57299805 C-4.58684868 -0.2927454 -3.15829337 -0.33396689 0 0 Z " fill="#088CC3" transform="translate(23,0)"/>
<path d="M0 0 C-0.51182223 4.17917653 -2.76149845 6.10710028 -5.69140625 8.984375 C-6.15610825 9.44483215 -6.62081024 9.90528931 -7.09959412 10.37969971 C-8.58031819 11.84367811 -10.07114519 13.29686041 -11.5625 14.75 C-12.57034664 15.74279449 -13.57751633 16.7362767 -14.58398438 17.73046875 C-17.04819461 20.16166473 -19.52157329 22.58328868 -22 25 C-22.66 24.67 -23.32 24.34 -24 24 C-22.46347997 20.36120325 -20.27579241 18.01785354 -17.5 15.234375 C-16.1696875 13.90019531 -16.1696875 13.90019531 -14.8125 12.5390625 C-13.4203125 11.15847656 -13.4203125 11.15847656 -12 9.75 C-11.071875 8.81414063 -10.14375 7.87828125 -9.1875 6.9140625 C-8.300625 6.02976562 -7.41375 5.14546875 -6.5 4.234375 C-5.6853125 3.42194336 -4.870625 2.60951172 -4.03125 1.77246094 C-2 0 -2 0 0 0 Z " fill="#08478B" transform="translate(30,6)"/>
<path d="M0 0 C0 3.87360939 -0.16685627 5.99166249 -2.671875 9.0234375 C-7.99984728 13.93078039 -7.99984728 13.93078039 -11.765625 14.19140625 C-12.87164063 14.09666016 -12.87164063 14.09666016 -14 14 C-2.28571429 0 -2.28571429 0 0 0 Z " fill="#071161" transform="translate(32,18)"/>
<path d="M0 0 C0.99 0.33 1.98 0.66 3 1 C-0.72346836 5.42094803 -4.29521038 9.57833482 -9 13 C-9 9.61579359 -8.50204985 7.57409288 -6.2578125 5.0078125 C-2.30872241 1.40589516 -2.30872241 1.40589516 0 0 Z " fill="#08B5E3" transform="translate(9,0)"/>
<path d="M0 0 C0.99 0.495 0.99 0.495 2 1 C1.01 1.495 1.01 1.495 0 2 C0 1.34 0 0.68 0 0 Z M-2 2 C-1.34 2.33 -0.68 2.66 0 3 C-7 10 -14 17 -21 24 C-19.75335853 15.39223744 -9.33090605 8.28113847 -3 3 C-2.67 2.67 -2.34 2.34 -2 2 Z " fill="#087DB7" transform="translate(22,1)"/>
<path d="M0 0 C0.66 0.33 1.32 0.66 2 1 C1.0479279 2.00596297 0.08812654 3.00461563 -0.875 4 C-1.40867187 4.556875 -1.94234375 5.11375 -2.4921875 5.6875 C-4 7 -4 7 -6 7 C-4.77065985 3.31197956 -3.06140622 2.27643027 0 0 Z M-8 7 C-7.34 7.33 -6.68 7.66 -6 8 C-6.99 8.66 -7.98 9.32 -9 10 C-8.67 9.01 -8.34 8.02 -8 7 Z M-11 10 C-10.34 10.33 -9.68 10.66 -9 11 C-9.99 11.66 -10.98 12.32 -12 13 C-11.67 12.01 -11.34 11.02 -11 10 Z M-15 14 C-14.34 14.33 -13.68 14.66 -13 15 C-15.64 17.64 -18.28 20.28 -21 23 C-21.66 22.67 -22.32 22.34 -23 22 C-20.58443874 18.80800833 -18.31996462 16.25283313 -15 14 Z " fill="#08609F" transform="translate(26,4)"/>
<path d="M0 0 C0.99 0.33 1.98 0.66 3 1 C-1.62 5.62 -6.24 10.24 -11 15 C-11 12 -11 12 -9.1015625 9.84375 C-8.28429687 9.0703125 -7.46703125 8.296875 -6.625 7.5 C-4.04782096 5.04554377 -1.98069878 2.97104817 0 0 Z " fill="#08A9DA" transform="translate(12,0)"/>
</svg>
